<svg version="1.2" xmlns="http://www.w3.org/2000/svg" viewBox="0 0 60 60" width="60" height="60"><style>.a{fill:#999}</style><path class="a" d="m48.6 30.7c0 10.6-8.7 19.2-19.3 19.2-10.6 0-19.2-8.6-19.2-19.2 0-10.6 8.6-19.3 19.2-19.3 3.7 0 7.2 1.1 10.1 2.9l-2.6 2.6c-2.2-1.2-4.8-1.9-7.5-1.9-8.6 0-15.7 7-15.7 15.7 0 8.6 7.1 15.7 15.7 15.7 8.7 0 15.7-7.1 15.7-15.7 0-2.7-0.7-5.3-1.9-7.5l2.6-2.6c1.8 2.9 2.9 6.4 2.9 10.1zm-10.1-2.9l-3.1 3.1c-0.2 3.3-2.8 5.9-6.1 5.9-3.3 0-6.1-2.8-6.1-6.1 0-3.3 2.6-5.9 5.9-6.1l3.1-3.1q-1.4-0.4-2.9-0.4c-5.3 0-9.6 4.3-9.6 9.6 0 5.3 4.3 9.6 9.6 9.6 5.3 0 9.6-4.3 9.6-9.6q0-1.5-0.4-2.9zm15.9-12.2l-2.6 2.6c2.1 3.7 3.3 8 3.3 12.5 0 14.2-11.6 25.7-25.8 25.7-14.2 0-25.7-11.5-25.7-25.7 0-14.2 11.5-25.8 25.7-25.8 4.5 0 8.8 1.2 12.5 3.3l2.6-2.6c-4.4-2.7-9.6-4.2-15.1-4.2-16.2 0-29.3 13.1-29.3 29.3 0 16.2 13.1 29.3 29.3 29.3 16.2 0 29.3-13.1 29.3-29.3 0-5.5-1.5-10.7-4.2-15.1zm-3.8 0.1l-3.4-0.4-16.7 16.7c-0.7 0.7-1.8 0.7-2.5 0-0.7-0.7-0.7-1.8 0-2.5l16.7-16.7-0.4-3.4 9.4-9.4 1.3 5 5 1.3z"/></svg>