<svg version="1.2" xmlns="http://www.w3.org/2000/svg" viewBox="0 0 74 60" width="74" height="60"><style>.a{fill:#999}</style><path class="a" d="m73.9 8.2l-2.1 8.3c-0.3 1.3-1.7 2.1-3 1.8l-6.2-1.5c-1.3-0.4-2.4 0.5-2.4 1.8v38.9c0 1.4-1.1 2.5-2.5 2.5h-41.4c-1.3 0-2.4-1.1-2.4-2.5v-38.9c0-1.3-1.1-2.2-2.5-1.8l-6.2 1.5c-1.3 0.3-2.7-0.5-3-1.8l-2.1-8.3c-0.4-1.3 0.4-2.6 1.8-3l19.5-4.8q1.8-0.4 3.4-0.4 0.1 0 0.2 0h3.5c0.9 3.8 4.3 6.6 8.5 6.6 4.1 0 7.5-2.8 8.4-6.6h3.7q0 0 0.1 0 1.6 0 3.3 0.4l19.6 4.8c1.4 0.4 2.2 1.7 1.8 3zm-30.8 28.5q-2.4 2.2-6.6 2.2-4.3 0-6.4-2.2-2.2-2.2-2.2-5.4 0-2.1 0.9-3.8 1-1.7 2.9-2.6-1.9-1.2-2.4-2.6-0.6-1.4-0.6-2.6 0-2.7 2.1-4.6 2.1-2 5.9-2 3.7 0 5.8 2 2.1 1.9 2.1 4.6 0 1.2-0.6 2.6-0.5 1.4-2.3 2.5 1.8 1 2.8 2.7 0.9 1.7 0.9 3.8 0 3.2-2.3 5.4zm-3.8-8.6q1 1 1 2.9 0 1.8-1 2.8-0.9 1.1-2.6 1.1-1.7 0-2.7-1.1-1-1-1-2.8 0-1.9 1-2.9 1-1 2.7-1 1.6 0 2.6 1zm-5-5.6q-0.8-0.9-0.8-2.2 0-1.5 0.8-2.4 0.9-0.8 2.4-0.8 1.5 0 2.3 0.8 0.8 0.9 0.8 2.4 0 1.3-0.8 2.2-0.8 0.8-2.3 0.8-1.5 0-2.4-0.8z"/></svg>