<svg version="1.2" xmlns="http://www.w3.org/2000/svg" viewBox="0 0 64 60" width="64" height="60"><style>.a{fill:#999}</style><path class="a" d="m41.4 59.9c-0.9 0.2-8.8 0.1-9.4 0-0.6 0.1-8.5 0.2-9.4 0-0.9-0.1 0-0.8 1.1-1.6 1.1-0.8 1.3-2 1.3-2l0.4-2.6h13.2l0.4 2.6c0 0 0.2 1.2 1.3 2 1.1 0.8 2 1.5 1.1 1.6zm-24.3-22.6c3.5 0 3.9-0.9 5.1-4.4 2.1-5.5 11.7 1.5 5.8 3.9-6 2.4-14.5 0.5-10.9 0.5zm36.1-30.1l-21.3 23c-1.8 2.2-1.4 2.1-3.1 0.7-1.7-1.3-1.7-0.9 0.1-3.1l18.1-25.6c1.8-2.2 4.7-2.9 6.4-1.5 1.7 1.4 1.6 4.3-0.2 6.5zm-4.5-3.4c0 0-0.3-0.3-1.1-1 1.3-2.2 3.9-1.8 3.9-1.8-2.5 1.5-2.8 2.8-2.8 2.8zm15.3 8.1v36.7c0 1.4-1.1 2.5-2.6 2.5h-58.8c-1.5 0-2.6-1.1-2.6-2.5v-36.7c0-1.4 1.1-2.5 2.6-2.5h36.7l-2.7 3.7h-32.8v30.4h56.4v-30.4h-10.3l3.5-3.7h8c1.5 0 2.6 1.1 2.6 2.5z"/></svg>